<svg width="300" height="277" viewBox="0 0 300 277" fill="none" xmlns="http://www.w3.org/2000/svg">
<g clip-path="url(#clip0_0_316)">
<circle opacity="0.102052" cx="148.7" cy="139.7" r="100.7" stroke="white" stroke-width="5.7"/>
<circle opacity="0.102052" cx="148.7" cy="139.7" r="77" stroke="white" stroke-width="5.7"/>
<circle opacity="0.102052" cx="148.7" cy="139.7" r="89" stroke="white" stroke-width="5.7"/>
<circle opacity="0.102052" cx="148.7" cy="139.7" r="65" stroke="white" stroke-width="5.7"/>
<circle opacity="0.102052" cx="149" cy="140" r="53" stroke="white" stroke-width="5.586"/>
<path d="M48 139.7C48 195.315 93.0849 240.4 148.7 240.4C204.315 240.4 249.4 195.315 249.4 139.7C249.4 84.0849 204.315 39 148.7 39" stroke="#4DACF6" stroke-width="5.7" stroke-linecap="round"/>
<path d="M237.7 139.7C237.7 90.5467 197.853 50.7 148.7 50.7" stroke="#674DF6" stroke-width="5.7" stroke-linecap="round"/>
<path d="M126.953 65.8138C95.0168 75.1985 71.7 104.726 71.7 139.7C71.7 182.226 106.174 216.7 148.7 216.7C191.226 216.7 225.7 182.226 225.7 139.7C225.7 97.1741 191.226 62.7 148.7 62.7" stroke="#32DBBB" stroke-width="5.7" stroke-linecap="round"/>
<path d="M102.018 185.101C113.873 197.193 130.424 204.7 148.736 204.7C184.79 204.7 214.018 175.599 214.018 139.7C214.018 103.802 184.79 74.7 148.736 74.7" stroke="#FE5B81" stroke-width="5.7" stroke-linecap="round"/>
<path d="M196.7 117.85C188.405 99.5636 170.033 87 148.7 87" stroke="#FFA800" stroke-width="5.7" stroke-linecap="round"/>
<path d="M137.704 14V5.6H136.348C136.3 5.92 136.2 6.188 136.048 6.404C135.896 6.62 135.708 6.796 135.484 6.932C135.268 7.06 135.02 7.152 134.74 7.208C134.468 7.256 134.184 7.276 133.888 7.268V8.552H136V14H137.704ZM141.624 9.764C141.624 9.62 141.624 9.448 141.624 9.248C141.632 9.04 141.648 8.828 141.672 8.612C141.696 8.396 141.736 8.184 141.792 7.976C141.848 7.76 141.924 7.568 142.02 7.4C142.124 7.232 142.252 7.096 142.404 6.992C142.564 6.888 142.76 6.836 142.992 6.836C143.224 6.836 143.42 6.888 143.58 6.992C143.74 7.096 143.872 7.232 143.976 7.4C144.08 7.568 144.156 7.76 144.204 7.976C144.26 8.184 144.3 8.396 144.324 8.612C144.356 8.828 144.372 9.04 144.372 9.248C144.38 9.448 144.384 9.62 144.384 9.764C144.384 10.004 144.376 10.296 144.36 10.64C144.344 10.976 144.292 11.304 144.204 11.624C144.124 11.936 143.988 12.204 143.796 12.428C143.612 12.652 143.344 12.764 142.992 12.764C142.648 12.764 142.384 12.652 142.2 12.428C142.016 12.204 141.88 11.936 141.792 11.624C141.712 11.304 141.664 10.976 141.648 10.64C141.632 10.296 141.624 10.004 141.624 9.764ZM139.92 9.764C139.92 10.604 140 11.308 140.16 11.876C140.328 12.436 140.552 12.884 140.832 13.22C141.112 13.556 141.436 13.796 141.804 13.94C142.18 14.084 142.576 14.156 142.992 14.156C143.416 14.156 143.812 14.084 144.18 13.94C144.556 13.796 144.884 13.556 145.164 13.22C145.452 12.884 145.676 12.436 145.836 11.876C146.004 11.308 146.088 10.604 146.088 9.764C146.088 8.948 146.004 8.264 145.836 7.712C145.676 7.152 145.452 6.704 145.164 6.368C144.884 6.032 144.556 5.792 144.18 5.648C143.812 5.504 143.416 5.432 142.992 5.432C142.576 5.432 142.18 5.504 141.804 5.648C141.436 5.792 141.112 6.032 140.832 6.368C140.552 6.704 140.328 7.152 140.16 7.712C140 8.264 139.92 8.948 139.92 9.764ZM148.292 9.764C148.292 9.62 148.292 9.448 148.292 9.248C148.3 9.04 148.316 8.828 148.34 8.612C148.364 8.396 148.404 8.184 148.46 7.976C148.516 7.76 148.592 7.568 148.688 7.4C148.792 7.232 148.92 7.096 149.072 6.992C149.232 6.888 149.428 6.836 149.66 6.836C149.892 6.836 150.088 6.888 150.248 6.992C150.408 7.096 150.54 7.232 150.644 7.4C150.748 7.568 150.824 7.76 150.872 7.976C150.928 8.184 150.968 8.396 150.992 8.612C151.024 8.828 151.04 9.04 151.04 9.248C151.048 9.448 151.052 9.62 151.052 9.764C151.052 10.004 151.044 10.296 151.028 10.64C151.012 10.976 150.96 11.304 150.872 11.624C150.792 11.936 150.656 12.204 150.464 12.428C150.28 12.652 150.012 12.764 149.66 12.764C149.316 12.764 149.052 12.652 148.868 12.428C148.684 12.204 148.548 11.936 148.46 11.624C148.38 11.304 148.332 10.976 148.316 10.64C148.3 10.296 148.292 10.004 148.292 9.764ZM146.588 9.764C146.588 10.604 146.668 11.308 146.828 11.876C146.996 12.436 147.22 12.884 147.5 13.22C147.78 13.556 148.104 13.796 148.472 13.94C148.848 14.084 149.244 14.156 149.66 14.156C150.084 14.156 150.48 14.084 150.848 13.94C151.224 13.796 151.552 13.556 151.832 13.22C152.12 12.884 152.344 12.436 152.504 11.876C152.672 11.308 152.756 10.604 152.756 9.764C152.756 8.948 152.672 8.264 152.504 7.712C152.344 7.152 152.12 6.704 151.832 6.368C151.552 6.032 151.224 5.792 150.848 5.648C150.48 5.504 150.084 5.432 149.66 5.432C149.244 5.432 148.848 5.504 148.472 5.648C148.104 5.792 147.78 6.032 147.5 6.368C147.22 6.704 146.996 7.152 146.828 7.712C146.668 8.264 146.588 8.948 146.588 9.764ZM161.32 11.816C161.32 11.68 161.324 11.528 161.332 11.36C161.348 11.192 161.384 11.036 161.44 10.892C161.496 10.748 161.576 10.628 161.68 10.532C161.792 10.436 161.944 10.388 162.136 10.388C162.312 10.388 162.448 10.444 162.544 10.556C162.648 10.66 162.724 10.788 162.772 10.94C162.82 11.084 162.848 11.24 162.856 11.408C162.872 11.568 162.88 11.708 162.88 11.828C162.88 11.956 162.872 12.104 162.856 12.272C162.848 12.432 162.816 12.588 162.76 12.74C162.712 12.884 162.632 13.008 162.52 13.112C162.416 13.216 162.272 13.268 162.088 13.268C161.896 13.268 161.748 13.216 161.644 13.112C161.54 13.008 161.464 12.884 161.416 12.74C161.368 12.588 161.34 12.428 161.332 12.26C161.324 12.092 161.32 11.944 161.32 11.816ZM160.096 11.804C160.096 12.132 160.128 12.44 160.192 12.728C160.264 13.016 160.376 13.268 160.528 13.484C160.688 13.692 160.892 13.856 161.14 13.976C161.396 14.096 161.708 14.156 162.076 14.156C162.428 14.156 162.732 14.1 162.988 13.988C163.244 13.868 163.452 13.704 163.612 13.496C163.78 13.288 163.904 13.044 163.984 12.764C164.064 12.484 164.104 12.18 164.104 11.852C164.104 11.524 164.072 11.216 164.008 10.928C163.944 10.64 163.832 10.392 163.672 10.184C163.52 9.968 163.32 9.8 163.072 9.68C162.824 9.552 162.512 9.488 162.136 9.488C161.784 9.488 161.48 9.548 161.224 9.668C160.968 9.788 160.756 9.952 160.588 10.16C160.42 10.368 160.296 10.612 160.216 10.892C160.136 11.172 160.096 11.476 160.096 11.804ZM161.02 5.336L156.052 14.252H157.096L162.04 5.336H161.02ZM155.128 7.832C155.128 7.696 155.132 7.54 155.14 7.364C155.156 7.188 155.192 7.024 155.248 6.872C155.304 6.72 155.384 6.592 155.488 6.488C155.6 6.384 155.752 6.332 155.944 6.332C156.12 6.332 156.256 6.388 156.352 6.5C156.456 6.612 156.532 6.748 156.58 6.908C156.628 7.068 156.656 7.236 156.664 7.412C156.68 7.58 156.688 7.724 156.688 7.844C156.688 7.972 156.68 8.116 156.664 8.276C156.656 8.428 156.624 8.576 156.568 8.72C156.52 8.856 156.44 8.972 156.328 9.068C156.224 9.164 156.08 9.212 155.896 9.212C155.704 9.212 155.556 9.164 155.452 9.068C155.348 8.972 155.272 8.856 155.224 8.72C155.176 8.576 155.148 8.424 155.14 8.264C155.132 8.104 155.128 7.96 155.128 7.832ZM153.904 7.808C153.904 8.136 153.936 8.444 154 8.732C154.072 9.012 154.184 9.256 154.336 9.464C154.496 9.664 154.7 9.824 154.948 9.944C155.204 10.056 155.516 10.112 155.884 10.112C156.236 10.112 156.54 10.056 156.796 9.944C157.052 9.832 157.26 9.676 157.42 9.476C157.588 9.276 157.712 9.04 157.792 8.768C157.872 8.488 157.912 8.184 157.912 7.856C157.912 7.528 157.88 7.216 157.816 6.92C157.752 6.624 157.64 6.368 157.48 6.152C157.328 5.928 157.128 5.752 156.88 5.624C156.632 5.496 156.32 5.432 155.944 5.432C155.592 5.432 155.288 5.496 155.032 5.624C154.776 5.744 154.564 5.912 154.396 6.128C154.228 6.344 154.104 6.596 154.024 6.884C153.944 7.172 153.904 7.48 153.904 7.808Z" fill="white"/>
<path d="M142 266.004V264.6H137.308L136.48 269.244H138.016C138.184 269.012 138.364 268.844 138.556 268.74C138.748 268.628 138.996 268.572 139.3 268.572C139.532 268.572 139.736 268.612 139.912 268.692C140.088 268.772 140.24 268.884 140.368 269.028C140.496 269.172 140.592 269.34 140.656 269.532C140.72 269.724 140.752 269.928 140.752 270.144C140.752 270.352 140.716 270.556 140.644 270.756C140.58 270.948 140.484 271.12 140.356 271.272C140.236 271.416 140.084 271.536 139.9 271.632C139.724 271.72 139.524 271.764 139.3 271.764C138.916 271.764 138.6 271.652 138.352 271.428C138.104 271.196 137.96 270.888 137.92 270.504H136.216C136.224 270.944 136.312 271.332 136.48 271.668C136.656 271.996 136.888 272.272 137.176 272.496C137.464 272.72 137.792 272.888 138.16 273C138.536 273.104 138.928 273.156 139.336 273.156C139.76 273.164 140.16 273.096 140.536 272.952C140.912 272.8 141.24 272.588 141.52 272.316C141.808 272.044 142.036 271.724 142.204 271.356C142.372 270.98 142.456 270.576 142.456 270.144C142.456 269.752 142.396 269.384 142.276 269.04C142.164 268.688 141.996 268.384 141.772 268.128C141.556 267.872 141.288 267.668 140.968 267.516C140.648 267.364 140.28 267.288 139.864 267.288C139.528 267.288 139.228 267.34 138.964 267.444C138.7 267.54 138.452 267.704 138.22 267.936L138.196 267.912L138.532 266.004H142ZM144.624 268.764C144.624 268.62 144.624 268.448 144.624 268.248C144.632 268.04 144.648 267.828 144.672 267.612C144.696 267.396 144.736 267.184 144.792 266.976C144.848 266.76 144.924 266.568 145.02 266.4C145.124 266.232 145.252 266.096 145.404 265.992C145.564 265.888 145.76 265.836 145.992 265.836C146.224 265.836 146.42 265.888 146.58 265.992C146.74 266.096 146.872 266.232 146.976 266.4C147.08 266.568 147.156 266.76 147.204 266.976C147.26 267.184 147.3 267.396 147.324 267.612C147.356 267.828 147.372 268.04 147.372 268.248C147.38 268.448 147.384 268.62 147.384 268.764C147.384 269.004 147.376 269.296 147.36 269.64C147.344 269.976 147.292 270.304 147.204 270.624C147.124 270.936 146.988 271.204 146.796 271.428C146.612 271.652 146.344 271.764 145.992 271.764C145.648 271.764 145.384 271.652 145.2 271.428C145.016 271.204 144.88 270.936 144.792 270.624C144.712 270.304 144.664 269.976 144.648 269.64C144.632 269.296 144.624 269.004 144.624 268.764ZM142.92 268.764C142.92 269.604 143 270.308 143.16 270.876C143.328 271.436 143.552 271.884 143.832 272.22C144.112 272.556 144.436 272.796 144.804 272.94C145.18 273.084 145.576 273.156 145.992 273.156C146.416 273.156 146.812 273.084 147.18 272.94C147.556 272.796 147.884 272.556 148.164 272.22C148.452 271.884 148.676 271.436 148.836 270.876C149.004 270.308 149.088 269.604 149.088 268.764C149.088 267.948 149.004 267.264 148.836 266.712C148.676 266.152 148.452 265.704 148.164 265.368C147.884 265.032 147.556 264.792 147.18 264.648C146.812 264.504 146.416 264.432 145.992 264.432C145.576 264.432 145.18 264.504 144.804 264.648C144.436 264.792 144.112 265.032 143.832 265.368C143.552 265.704 143.328 266.152 143.16 266.712C143 267.264 142.92 267.948 142.92 268.764ZM157.652 270.816C157.652 270.68 157.656 270.528 157.664 270.36C157.68 270.192 157.716 270.036 157.772 269.892C157.828 269.748 157.908 269.628 158.012 269.532C158.124 269.436 158.276 269.388 158.468 269.388C158.644 269.388 158.78 269.444 158.876 269.556C158.98 269.66 159.056 269.788 159.104 269.94C159.152 270.084 159.18 270.24 159.188 270.408C159.204 270.568 159.212 270.708 159.212 270.828C159.212 270.956 159.204 271.104 159.188 271.272C159.18 271.432 159.148 271.588 159.092 271.74C159.044 271.884 158.964 272.008 158.852 272.112C158.748 272.216 158.604 272.268 158.42 272.268C158.228 272.268 158.08 272.216 157.976 272.112C157.872 272.008 157.796 271.884 157.748 271.74C157.7 271.588 157.672 271.428 157.664 271.26C157.656 271.092 157.652 270.944 157.652 270.816ZM156.428 270.804C156.428 271.132 156.46 271.44 156.524 271.728C156.596 272.016 156.708 272.268 156.86 272.484C157.02 272.692 157.224 272.856 157.472 272.976C157.728 273.096 158.04 273.156 158.408 273.156C158.76 273.156 159.064 273.1 159.32 272.988C159.576 272.868 159.784 272.704 159.944 272.496C160.112 272.288 160.236 272.044 160.316 271.764C160.396 271.484 160.436 271.18 160.436 270.852C160.436 270.524 160.404 270.216 160.34 269.928C160.276 269.64 160.164 269.392 160.004 269.184C159.852 268.968 159.652 268.8 159.404 268.68C159.156 268.552 158.844 268.488 158.468 268.488C158.116 268.488 157.812 268.548 157.556 268.668C157.3 268.788 157.088 268.952 156.92 269.16C156.752 269.368 156.628 269.612 156.548 269.892C156.468 270.172 156.428 270.476 156.428 270.804ZM157.352 264.336L152.384 273.252H153.428L158.372 264.336H157.352ZM151.46 266.832C151.46 266.696 151.464 266.54 151.472 266.364C151.488 266.188 151.524 266.024 151.58 265.872C151.636 265.72 151.716 265.592 151.82 265.488C151.932 265.384 152.084 265.332 152.276 265.332C152.452 265.332 152.588 265.388 152.684 265.5C152.788 265.612 152.864 265.748 152.912 265.908C152.96 266.068 152.988 266.236 152.996 266.412C153.012 266.58 153.02 266.724 153.02 266.844C153.02 266.972 153.012 267.116 152.996 267.276C152.988 267.428 152.956 267.576 152.9 267.72C152.852 267.856 152.772 267.972 152.66 268.068C152.556 268.164 152.412 268.212 152.228 268.212C152.036 268.212 151.888 268.164 151.784 268.068C151.68 267.972 151.604 267.856 151.556 267.72C151.508 267.576 151.48 267.424 151.472 267.264C151.464 267.104 151.46 266.96 151.46 266.832ZM150.236 266.808C150.236 267.136 150.268 267.444 150.332 267.732C150.404 268.012 150.516 268.256 150.668 268.464C150.828 268.664 151.032 268.824 151.28 268.944C151.536 269.056 151.848 269.112 152.216 269.112C152.568 269.112 152.872 269.056 153.128 268.944C153.384 268.832 153.592 268.676 153.752 268.476C153.92 268.276 154.044 268.04 154.124 267.768C154.204 267.488 154.244 267.184 154.244 266.856C154.244 266.528 154.212 266.216 154.148 265.92C154.084 265.624 153.972 265.368 153.812 265.152C153.66 264.928 153.46 264.752 153.212 264.624C152.964 264.496 152.652 264.432 152.276 264.432C151.924 264.432 151.62 264.496 151.364 264.624C151.108 264.744 150.896 264.912 150.728 265.128C150.56 265.344 150.436 265.596 150.356 265.884C150.276 266.172 150.236 266.48 150.236 266.808Z" fill="white"/>
<path d="M274.444 139.828H276.076C276.076 139.604 276.096 139.38 276.136 139.156C276.184 138.924 276.26 138.716 276.364 138.532C276.468 138.34 276.604 138.188 276.772 138.076C276.948 137.956 277.16 137.896 277.408 137.896C277.776 137.896 278.076 138.012 278.308 138.244C278.548 138.468 278.668 138.784 278.668 139.192C278.668 139.448 278.608 139.676 278.488 139.876C278.376 140.076 278.232 140.256 278.056 140.416C277.888 140.576 277.7 140.724 277.492 140.86C277.284 140.988 277.088 141.116 276.904 141.244C276.544 141.492 276.2 141.736 275.872 141.976C275.552 142.216 275.272 142.48 275.032 142.768C274.792 143.048 274.6 143.368 274.456 143.728C274.32 144.088 274.252 144.512 274.252 145H280.42V143.536H276.448C276.656 143.248 276.896 142.996 277.168 142.78C277.44 142.564 277.72 142.364 278.008 142.18C278.296 141.988 278.58 141.796 278.86 141.604C279.148 141.412 279.404 141.2 279.628 140.968C279.852 140.728 280.032 140.456 280.168 140.152C280.304 139.848 280.372 139.484 280.372 139.06C280.372 138.652 280.292 138.284 280.132 137.956C279.98 137.628 279.772 137.352 279.508 137.128C279.244 136.904 278.936 136.732 278.584 136.612C278.24 136.492 277.876 136.432 277.492 136.432C276.988 136.432 276.54 136.52 276.148 136.696C275.764 136.864 275.444 137.104 275.188 137.416C274.932 137.72 274.74 138.08 274.612 138.496C274.484 138.904 274.428 139.348 274.444 139.828ZM286.668 138.004V136.6H281.976L281.148 141.244H282.684C282.852 141.012 283.032 140.844 283.224 140.74C283.416 140.628 283.664 140.572 283.968 140.572C284.2 140.572 284.404 140.612 284.58 140.692C284.756 140.772 284.908 140.884 285.036 141.028C285.164 141.172 285.26 141.34 285.324 141.532C285.388 141.724 285.42 141.928 285.42 142.144C285.42 142.352 285.384 142.556 285.312 142.756C285.248 142.948 285.152 143.12 285.024 143.272C284.904 143.416 284.752 143.536 284.568 143.632C284.392 143.72 284.192 143.764 283.968 143.764C283.584 143.764 283.268 143.652 283.02 143.428C282.772 143.196 282.628 142.888 282.588 142.504H280.884C280.892 142.944 280.98 143.332 281.148 143.668C281.324 143.996 281.556 144.272 281.844 144.496C282.132 144.72 282.46 144.888 282.828 145C283.204 145.104 283.596 145.156 284.004 145.156C284.428 145.164 284.828 145.096 285.204 144.952C285.58 144.8 285.908 144.588 286.188 144.316C286.476 144.044 286.704 143.724 286.872 143.356C287.04 142.98 287.124 142.576 287.124 142.144C287.124 141.752 287.064 141.384 286.944 141.04C286.832 140.688 286.664 140.384 286.44 140.128C286.224 139.872 285.956 139.668 285.636 139.516C285.316 139.364 284.948 139.288 284.532 139.288C284.196 139.288 283.896 139.34 283.632 139.444C283.368 139.54 283.12 139.704 282.888 139.936L282.864 139.912L283.2 138.004H286.668ZM295.652 142.816C295.652 142.68 295.656 142.528 295.664 142.36C295.68 142.192 295.716 142.036 295.772 141.892C295.828 141.748 295.908 141.628 296.012 141.532C296.124 141.436 296.276 141.388 296.468 141.388C296.644 141.388 296.78 141.444 296.876 141.556C296.98 141.66 297.056 141.788 297.104 141.94C297.152 142.084 297.18 142.24 297.188 142.408C297.204 142.568 297.212 142.708 297.212 142.828C297.212 142.956 297.204 143.104 297.188 143.272C297.18 143.432 297.148 143.588 297.092 143.74C297.044 143.884 296.964 144.008 296.852 144.112C296.748 144.216 296.604 144.268 296.42 144.268C296.228 144.268 296.08 144.216 295.976 144.112C295.872 144.008 295.796 143.884 295.748 143.74C295.7 143.588 295.672 143.428 295.664 143.26C295.656 143.092 295.652 142.944 295.652 142.816ZM294.428 142.804C294.428 143.132 294.46 143.44 294.524 143.728C294.596 144.016 294.708 144.268 294.86 144.484C295.02 144.692 295.224 144.856 295.472 144.976C295.728 145.096 296.04 145.156 296.408 145.156C296.76 145.156 297.064 145.1 297.32 144.988C297.576 144.868 297.784 144.704 297.944 144.496C298.112 144.288 298.236 144.044 298.316 143.764C298.396 143.484 298.436 143.18 298.436 142.852C298.436 142.524 298.404 142.216 298.34 141.928C298.276 141.64 298.164 141.392 298.004 141.184C297.852 140.968 297.652 140.8 297.404 140.68C297.156 140.552 296.844 140.488 296.468 140.488C296.116 140.488 295.812 140.548 295.556 140.668C295.3 140.788 295.088 140.952 294.92 141.16C294.752 141.368 294.628 141.612 294.548 141.892C294.468 142.172 294.428 142.476 294.428 142.804ZM295.352 136.336L290.384 145.252H291.428L296.372 136.336H295.352ZM289.46 138.832C289.46 138.696 289.464 138.54 289.472 138.364C289.488 138.188 289.524 138.024 289.58 137.872C289.636 137.72 289.716 137.592 289.82 137.488C289.932 137.384 290.084 137.332 290.276 137.332C290.452 137.332 290.588 137.388 290.684 137.5C290.788 137.612 290.864 137.748 290.912 137.908C290.96 138.068 290.988 138.236 290.996 138.412C291.012 138.58 291.02 138.724 291.02 138.844C291.02 138.972 291.012 139.116 290.996 139.276C290.988 139.428 290.956 139.576 290.9 139.72C290.852 139.856 290.772 139.972 290.66 140.068C290.556 140.164 290.412 140.212 290.228 140.212C290.036 140.212 289.888 140.164 289.784 140.068C289.68 139.972 289.604 139.856 289.556 139.72C289.508 139.576 289.48 139.424 289.472 139.264C289.464 139.104 289.46 138.96 289.46 138.832ZM288.236 138.808C288.236 139.136 288.268 139.444 288.332 139.732C288.404 140.012 288.516 140.256 288.668 140.464C288.828 140.664 289.032 140.824 289.28 140.944C289.536 141.056 289.848 141.112 290.216 141.112C290.568 141.112 290.872 141.056 291.128 140.944C291.384 140.832 291.592 140.676 291.752 140.476C291.92 140.276 292.044 140.04 292.124 139.768C292.204 139.488 292.244 139.184 292.244 138.856C292.244 138.528 292.212 138.216 292.148 137.92C292.084 137.624 291.972 137.368 291.812 137.152C291.66 136.928 291.46 136.752 291.212 136.624C290.964 136.496 290.652 136.432 290.276 136.432C289.924 136.432 289.62 136.496 289.364 136.624C289.108 136.744 288.896 136.912 288.728 137.128C288.56 137.344 288.436 137.596 288.356 137.884C288.276 138.172 288.236 138.48 288.236 138.808Z" fill="white"/>
<path d="M6.204 138.064V136.6H0.468V138.184H4.452C3.652 139.152 3.004 140.216 2.508 141.376C2.02 142.536 1.728 143.744 1.632 145H3.456C3.464 144.44 3.528 143.836 3.648 143.188C3.776 142.54 3.952 141.9 4.176 141.268C4.408 140.636 4.692 140.04 5.028 139.48C5.372 138.92 5.764 138.448 6.204 138.064ZM12.668 138.004V136.6H7.97597L7.14797 141.244H8.68397C8.85197 141.012 9.03197 140.844 9.22397 140.74C9.41597 140.628 9.66397 140.572 9.96797 140.572C10.2 140.572 10.404 140.612 10.58 140.692C10.756 140.772 10.908 140.884 11.036 141.028C11.164 141.172 11.26 141.34 11.324 141.532C11.388 141.724 11.42 141.928 11.42 142.144C11.42 142.352 11.384 142.556 11.312 142.756C11.248 142.948 11.152 143.12 11.024 143.272C10.904 143.416 10.752 143.536 10.568 143.632C10.392 143.72 10.192 143.764 9.96797 143.764C9.58397 143.764 9.26797 143.652 9.01997 143.428C8.77197 143.196 8.62797 142.888 8.58797 142.504H6.88397C6.89197 142.944 6.97997 143.332 7.14797 143.668C7.32397 143.996 7.55597 144.272 7.84397 144.496C8.13197 144.72 8.45997 144.888 8.82797 145C9.20397 145.104 9.59597 145.156 10.004 145.156C10.428 145.164 10.828 145.096 11.204 144.952C11.58 144.8 11.908 144.588 12.188 144.316C12.476 144.044 12.704 143.724 12.872 143.356C13.04 142.98 13.124 142.576 13.124 142.144C13.124 141.752 13.064 141.384 12.944 141.04C12.832 140.688 12.664 140.384 12.44 140.128C12.224 139.872 11.956 139.668 11.636 139.516C11.316 139.364 10.948 139.288 10.532 139.288C10.196 139.288 9.89597 139.34 9.63197 139.444C9.36797 139.54 9.11997 139.704 8.88797 139.936L8.86397 139.912L9.19997 138.004H12.668ZM21.6519 142.816C21.6519 142.68 21.6559 142.528 21.6639 142.36C21.6799 142.192 21.7159 142.036 21.7719 141.892C21.8279 141.748 21.9079 141.628 22.0119 141.532C22.1239 141.436 22.2759 141.388 22.4679 141.388C22.6439 141.388 22.7799 141.444 22.8759 141.556C22.9799 141.66 23.0559 141.788 23.1039 141.94C23.1519 142.084 23.1799 142.24 23.1879 142.408C23.2039 142.568 23.2119 142.708 23.2119 142.828C23.2119 142.956 23.2039 143.104 23.1879 143.272C23.1799 143.432 23.1479 143.588 23.0919 143.74C23.0439 143.884 22.9639 144.008 22.8519 144.112C22.7479 144.216 22.6039 144.268 22.4199 144.268C22.2279 144.268 22.0799 144.216 21.9759 144.112C21.8719 144.008 21.7959 143.884 21.7479 143.74C21.6999 143.588 21.6719 143.428 21.6639 143.26C21.6559 143.092 21.6519 142.944 21.6519 142.816ZM20.4279 142.804C20.4279 143.132 20.4599 143.44 20.5239 143.728C20.5959 144.016 20.7079 144.268 20.8599 144.484C21.0199 144.692 21.2239 144.856 21.4719 144.976C21.7279 145.096 22.0399 145.156 22.4079 145.156C22.7599 145.156 23.0639 145.1 23.3199 144.988C23.5759 144.868 23.7839 144.704 23.9439 144.496C24.1119 144.288 24.2359 144.044 24.3159 143.764C24.3959 143.484 24.4359 143.18 24.4359 142.852C24.4359 142.524 24.4039 142.216 24.3399 141.928C24.2759 141.64 24.1639 141.392 24.0039 141.184C23.8519 140.968 23.6519 140.8 23.4039 140.68C23.1559 140.552 22.8439 140.488 22.4679 140.488C22.1159 140.488 21.8119 140.548 21.5559 140.668C21.2999 140.788 21.0879 140.952 20.9199 141.16C20.7519 141.368 20.6279 141.612 20.5479 141.892C20.4679 142.172 20.4279 142.476 20.4279 142.804ZM21.3519 136.336L16.3839 145.252H17.4279L22.3719 136.336H21.3519ZM15.4599 138.832C15.4599 138.696 15.4639 138.54 15.4719 138.364C15.4879 138.188 15.5239 138.024 15.5799 137.872C15.6359 137.72 15.7159 137.592 15.8199 137.488C15.9319 137.384 16.0839 137.332 16.2759 137.332C16.4519 137.332 16.5879 137.388 16.6839 137.5C16.7879 137.612 16.8639 137.748 16.9119 137.908C16.9599 138.068 16.9879 138.236 16.9959 138.412C17.0119 138.58 17.0199 138.724 17.0199 138.844C17.0199 138.972 17.0119 139.116 16.9959 139.276C16.9879 139.428 16.9559 139.576 16.8999 139.72C16.8519 139.856 16.7719 139.972 16.6599 140.068C16.5559 140.164 16.4119 140.212 16.2279 140.212C16.0359 140.212 15.8879 140.164 15.7839 140.068C15.6799 139.972 15.6039 139.856 15.5559 139.72C15.5079 139.576 15.4799 139.424 15.4719 139.264C15.4639 139.104 15.4599 138.96 15.4599 138.832ZM14.2359 138.808C14.2359 139.136 14.2679 139.444 14.3319 139.732C14.4039 140.012 14.5159 140.256 14.6679 140.464C14.8279 140.664 15.0319 140.824 15.2799 140.944C15.5359 141.056 15.8479 141.112 16.2159 141.112C16.5679 141.112 16.8719 141.056 17.1279 140.944C17.3839 140.832 17.5919 140.676 17.7519 140.476C17.9199 140.276 18.0439 140.04 18.1239 139.768C18.2039 139.488 18.2439 139.184 18.2439 138.856C18.2439 138.528 18.2119 138.216 18.1479 137.92C18.0839 137.624 17.9719 137.368 17.8119 137.152C17.6599 136.928 17.4599 136.752 17.2119 136.624C16.9639 136.496 16.6519 136.432 16.2759 136.432C15.9239 136.432 15.6199 136.496 15.3639 136.624C15.1079 136.744 14.8959 136.912 14.7279 137.128C14.5599 137.344 14.4359 137.596 14.3559 137.884C14.2759 138.172 14.2359 138.48 14.2359 138.808Z" fill="white"/>
<circle cx="47.85" cy="139.85" r="2.85" fill="white"/>
<circle cx="126.85" cy="65.85" r="2.85" fill="white"/>
<circle cx="101.85" cy="184.85" r="2.85" fill="white"/>
<circle cx="196.85" cy="117.85" r="2.85" fill="white"/>
<circle cx="237.85" cy="139.85" r="2.85" fill="white"/>
</g>
<defs>
<clipPath id="clip0_0_316">
<rect width="300" height="277" fill="white"/>
</clipPath>
</defs>
</svg>
